<?xml version="1.0" encoding="UTF-8"?>
<svg xmlns="http://www.w3.org/2000/svg" version="1.1" viewBox="0 0 720 720">
  <defs>
    <style>
      .cls-1 {
        fill: #03173e;
      }

      .cls-2 {
        fill: #e05929;
      }

      .cls-3 {
        fill: #fff;
      }

      .cls-4 {
        fill: none;
        stroke: #082340;
        stroke-miterlimit: 10;
        stroke-width: 5.3px;
      }
    </style>
  </defs>
  <!-- Generator: Adobe Illustrator 28.7.1, SVG Export Plug-In . SVG Version: 1.2.0 Build 142)  -->
  <g>
    <g id="art">
      <g>
        <g>
          <g>
            <g>
              <path class="cls-1" d="M358.7,714.3c-47.8,0-94.2-9.4-137.9-27.8-42.2-17.8-80.1-43.4-112.6-75.9-32.5-32.5-58.1-70.4-75.9-112.6-18.5-43.7-27.8-90.1-27.8-137.9s9.4-94.2,27.8-137.9c17.8-42.2,43.4-80.1,75.9-112.6s70.4-58.1,112.6-75.9c43.7-18.5,90.1-27.8,137.9-27.8s94.2,9.4,137.9,27.8c42.2,17.8,80.1,43.4,112.6,75.9,32.5,32.5,58.1,70.4,75.9,112.6,18.5,43.7,27.8,90.1,27.8,137.9s-9.4,94.2-27.8,137.9c-17.8,42.2-43.4,80.1-75.9,112.6s-70.4,58.1-112.6,75.9c-43.7,18.5-90.1,27.8-137.9,27.8Z"/>
              <path class="cls-3" d="M358.7,7.7c194.6,0,352.3,157.7,352.3,352.3s-157.7,352.3-352.3,352.3S6.4,554.6,6.4,360,164.1,7.7,358.7,7.7M358.7,3.7c-48.1,0-94.8,9.4-138.7,28-42.4,17.9-80.5,43.6-113.3,76.4-32.7,32.7-58.4,70.8-76.4,113.3C11.8,265.2,2.4,311.9,2.4,360s9.4,94.8,28,138.7c17.9,42.4,43.6,80.5,76.4,113.3,32.7,32.7,70.8,58.4,113.3,76.4,43.9,18.6,90.6,28,138.7,28s94.8-9.4,138.7-28c42.4-17.9,80.5-43.6,113.3-76.4,32.7-32.7,58.4-70.8,76.4-113.3,18.6-43.9,28-90.6,28-138.7s-9.4-94.8-28-138.7c-17.9-42.4-43.6-80.5-76.4-113.3-32.7-32.7-70.8-58.4-113.3-76.4C453.5,13.1,406.8,3.7,358.7,3.7h0Z"/>
            </g>
            <circle class="cls-3" cx="358.7" cy="360" r="252.3" transform="translate(-149.5 359.1) rotate(-45)"/>
            <g>
              <path class="cls-4" d="M357.4,578.9"/>
              <g>
                <g>
                  <path class="cls-1" d="M460.1,512.2l-.9.6-100.3,54.5-100.3-54.5-.9-.6c-13.2-8.5-23.8-18.7-32-30.6-1-1.4-2.6-2.3-4.3-2.3h-6.1c-2.2,0-3.5,2.4-2.4,4.3,8.8,14.2,20.7,26.5,35.7,36.6l107.3,58.7c1.8,1,4.1,1,5.9,0l107.3-58.7c15-10.1,26.9-22.4,35.7-36.6s-.1-4.3-2.4-4.3h-6.1c-1.7,0-3.3.9-4.3,2.3-8.2,11.9-18.8,22.1-32,30.6Z"/>
                  <path class="cls-1" d="M521,213.8h-9.5c-2,0-3.9.5-5.5,1.6l-.6.4c-8.5,5.4-29.2,17.4-57.3,17.4-43.5,0-68.4-28.5-82-54-.7-1.3-2-2.1-3.4-2.1h-7.8c-1.4,0-2.7.8-3.4,2.1-13.6,25.6-38.5,54-81.9,54s-48.8-12.1-57.3-17.4l-.6-.4c-1.6-1-3.5-1.6-5.5-1.6h-9.5c-1.5,0-2.7,1.2-2.7,2.7v58.4c0,1.5,1.2,2.8,2.8,2.8h6.1c1.5,0,2.8-1.2,2.8-2.8v-49.5h0c9.1,5.8,32.2,19.4,64,19.4s68.3-19.5,89.1-55c20.8,35.5,52.1,55,89.1,55,31.9,0,55-13.7,64.1-19.4h0v49.5c0,1.5,1.2,2.8,2.8,2.8h6.1c1.5,0,2.8-1.2,2.8-2.8v-58.4c0-1.5-1.2-2.7-2.7-2.7Z"/>
                </g>
                <g>
                  <g>
                    <g>
                      <g>
                        <path class="cls-1" d="M224.6,451.5v-2.6c2.8-.2,4.4-.5,4.9-.7.5-.2.9-.6,1.3-1.1.3-.5.5-1.3.5-2.4v-18.1h-23.8v17.7c0,1.5.4,2.5,1.3,3.2.9.7,2.6,1.2,5.3,1.4v2.6h-21.1v-2.6c3.3-.1,5.2-.6,5.9-1.3.6-.7,1-1.7,1-2.8v-36.7c0-2.9-2.3-4.5-6.8-4.9v-2.5h21.1v2.5c-2.5.2-4.2.6-5.2,1.1-.9.6-1.4,1.7-1.4,3.3v15.8h23.8v-15.4c0-2.9-2.2-4.5-6.7-4.9v-2.5h21.1v2.5c-2.5.2-4.3.6-5.3,1.2-1,.6-1.5,1.7-1.5,3.3v36.6c0,1.5.5,2.6,1.5,3.3s2.7,1.1,5.3,1.3v2.6h-21.1Z"/>
                        <path class="cls-1" d="M275.9,443.2c-3.3,6.2-8.1,9.2-14.5,9.2s-9.4-1.7-12.4-5.2c-3-3.5-4.5-8.1-4.5-13.7s1.5-9.3,4.5-12.9c3-3.6,6.9-5.4,11.6-5.4s8.2,1.4,10.7,4.1c2.5,2.7,3.7,6.4,3.7,11.1v2.4h-23.4c0,5,1,8.9,3.1,11.7,2,2.7,5,4.1,8.8,4.1s3.9-.5,5.4-1.4c1.5-.9,3-2.7,4.6-5.4l2.5,1.5ZM268,429.7c0-7.9-2.5-11.8-7.4-11.8s-4.6,1.1-6.2,3.2c-1.7,2.1-2.6,5-2.7,8.7h16.4Z"/>
                        <path class="cls-1" d="M311.9,450.8c-2.5.9-4.4,1.4-5.8,1.4-3.8,0-6-1.7-6.6-5.1h-.2c-3.2,3.5-7,5.3-11.4,5.3s-4.8-.8-6.5-2.4c-1.7-1.6-2.6-3.7-2.6-6.4s.8-5.2,2.4-6.8c1.6-1.6,4.4-3,8.4-4.3,5.7-1.9,8.9-3.1,9.8-3.6v-3.5c0-2.1-.6-3.8-1.7-5.3-1.1-1.5-2.8-2.2-5-2.2s-4,.6-5.1,1.7c0,.6.1,1.3.3,2.1.2.8.3,1.7.3,2.6s-.4,1.7-1.2,2.3c-.8.6-1.8,1-3,1-2.3,0-3.4-1.4-3.4-4.1s1.3-4,4-5.7c2.7-1.7,5.5-2.5,8.5-2.5,4.9,0,8.3,1,10.2,2.9,1.9,1.9,2.9,4.9,2.9,8.8l-.2,17.7c0,1.3.3,2.2.9,2.9.6.6,1.2,1,1.6,1.1.5,0,1.6.1,3.5.1v2.3ZM299.4,431.9c-5.2,1.5-8.8,3.1-10.6,4.7-1.9,1.6-2.8,3.6-2.8,6.1,0,3.8,1.8,5.7,5.5,5.7s5.4-1.4,7.8-4.1l.2-12.4Z"/>
                        <path class="cls-1" d="M314,451.5v-2.4l1.8-.2c2.3-.1,3.5-1.3,3.5-3.5v-37c0-1.1-.4-2.2-1.1-3.3-.8-1.1-2.8-1.8-6-2v-2.4l13.3-.8.5.5v44.6c0,2.4,1.8,3.8,5.3,4.1v2.4h-17.3Z"/>
                        <path class="cls-1" d="M355.1,449.9c-3.4,1.5-6.6,2.3-9.5,2.3-5.4,0-8.1-2.8-8.1-8.5v-24h-6.4v-3.4h6.6v-11h6.5v11h10.1v3.4h-10v19.8c0,3.3.4,5.5,1.1,6.7.7,1.2,2.3,1.8,4.6,1.8s3.7-.2,5.1-.6v2.7Z"/>
                        <path class="cls-1" d="M380,451.5v-2.4c.7,0,1.3-.1,1.9-.2,2.4-.1,3.6-1.3,3.6-3.5v-18.2c0-2.4-.6-4.3-1.7-5.7-1.1-1.4-2.6-2.2-4.4-2.2-4.1,0-7.1,1.8-9.2,5.4v20.3c0,2.4,1.8,3.8,5.4,4v2.4h-17.4v-2.4l1.8-.2c2.3-.2,3.5-1.3,3.5-3.5v-37.3c0-.9-.2-1.8-.7-2.7-.5-.9-1.1-1.5-1.8-1.7-.7-.3-2.2-.5-4.4-.6v-2.4l13.1-.8.5.5v20.7h.1c2.6-2.6,4.8-4.3,6.5-5,1.7-.7,3.6-1,5.6-1,6.5,0,9.8,3.9,9.8,11.7v18.4c0,2.4,1.7,3.7,5.2,3.9v2.4h-17.4Z"/>
                        <path class="cls-1" d="M428.4,443.3c-1.5,2.7-3.6,4.9-6.1,6.6-2.6,1.7-5.3,2.5-8.1,2.5-5.1,0-9.1-1.7-12-5.1-2.9-3.4-4.3-8-4.3-13.7s1.6-9.4,4.8-13c3.2-3.6,7.2-5.4,12.1-5.4s6.5.9,8.6,2.6c2.1,1.7,3.2,3.9,3.2,6.7s-1.2,4.6-3.7,4.6-2.5-.3-3.3-1c-.8-.7-1.2-1.5-1.2-2.4s.1-2,.4-3.2c.3-1.2.5-2.1.5-2.6-.7-1.2-2.3-1.8-4.7-1.8s-4.9,1.3-6.7,4c-1.7,2.7-2.6,6.5-2.6,11.5s1,8.2,3,11c2,2.8,4.6,4.2,7.7,4.2s7.5-2.2,10.1-6.7l2.4,1.5Z"/>
                        <path class="cls-1" d="M463.5,450.8c-2.5.9-4.4,1.4-5.8,1.4-3.8,0-6-1.7-6.6-5.1h-.2c-3.2,3.5-7,5.3-11.4,5.3s-4.8-.8-6.5-2.4c-1.7-1.6-2.6-3.7-2.6-6.4s.8-5.2,2.4-6.8c1.6-1.6,4.4-3,8.4-4.3,5.7-1.9,8.9-3.1,9.8-3.6v-3.5c0-2.1-.6-3.8-1.7-5.3-1.1-1.5-2.8-2.2-5-2.2s-4,.6-5.1,1.7c0,.6.1,1.3.3,2.1.2.8.3,1.7.3,2.6s-.4,1.7-1.2,2.3c-.8.6-1.8,1-3,1-2.3,0-3.4-1.4-3.4-4.1s1.3-4,4-5.7c2.7-1.7,5.5-2.5,8.5-2.5,4.9,0,8.3,1,10.2,2.9,1.9,1.9,2.9,4.9,2.9,8.8l-.2,17.7c0,1.3.3,2.2.9,2.9.6.6,1.2,1,1.6,1.1.5,0,1.6.1,3.5.1v2.3ZM451,431.9c-5.2,1.5-8.8,3.1-10.6,4.7-1.9,1.6-2.8,3.6-2.8,6.1,0,3.8,1.8,5.7,5.5,5.7s5.4-1.4,7.8-4.1l.2-12.4Z"/>
                        <path class="cls-1" d="M485.7,419.3c-3.2.2-5.8,1.9-7.8,5.2v20.6c0,1.3.4,2.2,1.2,2.8.8.6,2.7,1,5.5,1.2v2.4h-18.6v-2.4l1.7-.2c2.3-.2,3.5-1.3,3.5-3.5v-21.8c0-3.1-1.9-4.7-5.6-4.8v-2.4l11.8-.7.5.5v4.9h.2c3.1-3.9,6.4-5.9,9.9-5.9s2.7.5,3.7,1.5c1,1,1.4,2.3,1.4,4s-.3,2.5-1,3.3c-.7.9-1.5,1.3-2.7,1.3s-2.2-.3-3-1c-.8-.6-1.1-1.4-1.1-2.3s.1-1.6.4-2.7Z"/>
                        <path class="cls-1" d="M524.7,443.2c-3.3,6.2-8.1,9.2-14.5,9.2s-9.4-1.7-12.4-5.2c-3-3.5-4.5-8.1-4.5-13.7s1.5-9.3,4.5-12.9c3-3.6,6.9-5.4,11.6-5.4s8.2,1.4,10.7,4.1c2.5,2.7,3.7,6.4,3.7,11.1v2.4h-23.4c0,5,1,8.9,3.1,11.7,2,2.7,5,4.1,8.8,4.1s3.9-.5,5.4-1.4c1.5-.9,3-2.7,4.6-5.4l2.5,1.5ZM516.8,429.7c0-7.9-2.5-11.8-7.4-11.8s-4.6,1.1-6.2,3.2c-1.7,2.1-2.6,5-2.7,8.7h16.4Z"/>
                      </g>
                      <g>
                        <path class="cls-1" d="M211,338.6h35.9c.4,0,.7-.3.7-.7v-30.7c0-.9.7-1.6,1.6-1.6h13.2c.9,0,1.6.7,1.6,1.6v78.8c0,.9-.7,1.6-1.6,1.6h-13.2c-.9,0-1.6-.7-1.6-1.6v-31.4c0-.4-.3-.7-.7-.7h-35.9c-.4,0-.7.3-.7.7v31.4c0,.9-.7,1.6-1.6,1.6h-13.2c-.9,0-1.6-.7-1.6-1.6v-78.8c0-.9.7-1.6,1.6-1.6h13.3c.8,0,1.5.7,1.5,1.5v30.8c0,.4.3.7.7.7Z"/>
                        <path class="cls-1" d="M349.8,328.7l-11,6c-.7.4-1.5.3-2-.4s-1.7-2.8-4.7-6.5c-4.4-5.3-10.8-8-18.3-8-14.4,0-25.1,10.9-25.1,26.8,0,16.4,11.1,26.8,25.1,26.8s12.9-2.7,17.6-7.3c2-2,4.4-5.8,5.2-7,.5-.7,1.4-.8,2.1-.3l11.5,5.5c.7.5.8,1.4.3,2.2-.5.9-3.3,6-5.7,8.9-7.3,8.5-18.1,13.8-30.9,13.8-24.5,0-41.7-17.8-41.7-42.5s17.2-42.5,41.7-42.5,25.1,5.8,32,15.5c3.4,4.8,4,6.4,4.3,6.9.5.7.2,1.7-.5,2.2Z"/>
                      </g>
                      <path class="cls-1" d="M433.8,385.5l-30.8-79c-.2-.6-.7-.9-1.3-.9h-17.9c-.6,0-1.1.4-1.3.9l-30.8,79c-.4.9.3,2,1.3,2h13.9c.6,0,1.1-.4,1.3-.9l6.6-17.6c.1-.3.4-.5.7-.5h12.4c7.4-.4,12.4-6.6,12.4-14.2,0-.5-.4-.9-.9-.9h-17.8c-.5,0-.9-.5-.7-1l10.8-28.7c.2-.7,1.2-.7,1.4,0l23.5,62.9c.2.6.7.9,1.3.9h14.3c1,0,1.7-1,1.3-2Z"/>
                    </g>
                    <g>
                      <path class="cls-2" d="M451.6,360.6h9.3c3.6,0,6.6,3,6.6,6.6v9.3c0,5.7,4.6,11.1,10.3,11.1.3,0,.6-.3.6-.7v-23.2c0-7.8-6.3-14.1-14.1-14.1h-23.2c-.3,0-.6.3-.7.6,0,5.7,5.4,10.3,11.1,10.3Z"/>
                      <path class="cls-2" d="M451.6,331.2h9.3c3.6,0,6.6-3,6.6-6.6v-9.3c0-5.7,4.6-11.1,10.3-11.1.3,0,.6.3.6.7v23.2c0,7.8-6.3,14.1-14.1,14.1h-23.2c-.3,0-.6-.3-.7-.6,0-5.7,5.4-10.3,11.1-10.3Z"/>
                      <path class="cls-2" d="M512.7,360.6h-9.3c-3.6,0-6.6,3-6.6,6.6v9.3c0,5.7-4.6,11.1-10.3,11.1-.3,0-.6-.3-.6-.7v-23.2c0-7.8,6.3-14.1,14.1-14.1h23.2c.3,0,.6.3.7.6,0,5.7-5.4,10.3-11.1,10.3Z"/>
                      <path class="cls-2" d="M512.7,331.2h-9.3c-3.6,0-6.6-3-6.6-6.6v-9.3c0-5.7-4.6-11.1-10.3-11.1-.3,0-.6.3-.6.7v23.2c0,7.8,6.3,14.1,14.1,14.1h23.2c.3,0,.6-.3.7-.6,0-5.7-5.4-10.3-11.1-10.3Z"/>
                    </g>
                    <path class="cls-2" d="M483.7,339.1c1.4,2.1,3.1,3.8,5.2,5.2,1.6,1,1.6,2.2,0,3.3-2.1,1.4-3.8,3.1-5.2,5.2-1,1.6-2.2,1.6-3.3,0-1.4-2.1-3.1-3.8-5.2-5.2-1.6-1-1.6-2.2,0-3.3,2.1-1.4,3.8-3.1,5.2-5.2,1-1.6,2.2-1.6,3.3,0Z"/>
                  </g>
                  <path class="cls-1" d="M541.4,409.6c0,4.4-3.5,7.9-8,7.9s-8-3.5-8-7.9,3.6-7.8,8-7.8,8,3.5,8,7.8ZM527.4,409.6c0,3.5,2.6,6.2,6.1,6.2s5.9-2.7,5.9-6.2-2.5-6.3-6-6.3-6,2.8-6,6.2ZM532.2,413.7h-1.8v-7.8c.7-.1,1.7-.2,3-.2s2.1.2,2.7.6c.4.3.8.9.8,1.7s-.7,1.5-1.6,1.8h0c.8.4,1.2.9,1.4,2,.2,1.2.4,1.7.6,1.9h-1.9c-.2-.3-.4-1-.6-1.9-.1-.9-.6-1.2-1.6-1.2h-.9v3.1ZM532.2,409.3h.9c1,0,1.8-.3,1.8-1.1s-.5-1.2-1.7-1.2-.8,0-1,0v2.2Z"/>
                </g>
              </g>
            </g>
          </g>
          <g>
            <path class="cls-3" d="M76.6,293.5l7.2,1.3-5.4,29.4-39.4-7.2,5.3-29.2,7.2,1.3-3.9,21.3,8.7,1.6,3.7-20.3,7.2,1.3-3.7,20.3,9.1,1.6,3.9-21.6Z"/>
            <path class="cls-3" d="M47.2,275.5l2.4-7.1,31.8-10.8-25.4-8.5,2.5-7.6,38,12.7-2.4,7.1-31.8,10.8,25.4,8.5-2.5,7.6-38-12.7Z"/>
            <path class="cls-3" d="M83.5,206.6l-5.5,11.1,29.3,14.4-3.5,7.1-29.3-14.4-5.5,11.1-6.7-3.3,14.5-29.4,6.7,3.3Z"/>
            <path class="cls-3" d="M125.3,188.3l6.1,4-16.4,25-33.5-22,16.3-24.8,6.1,4-11.9,18.1,7.4,4.9,11.4-17.3,6.1,4-11.4,17.3,7.7,5.1,12-18.3Z"/>
            <path class="cls-3" d="M130.3,168.5l-1.5,1.8,12.1,10.4-5.2,6-30.3-26.2,11.1-12.8c6.2-7.2,13-8.1,18.8-3.1,5,4.3,5.4,10.7,1,17l20.2,1.2-6.3,7.3-19.7-1.6ZM123.5,165.8l5.8-6.7c2.8-3.3,3.1-6,.5-8.3-2.5-2.2-5.2-1.4-8,1.8l-5.8,6.7,7.4,6.4Z"/>
            <path class="cls-3" d="M165.5,117.7c5.1,5.8,4.6,12.9-2.4,19.2l-6.3,5.6,9.7,11-6,5.3-26.7-30,12.2-10.8c7.1-6.3,14.2-6,19.4-.2ZM159.4,123.1c-2.4-2.7-5.3-2.5-8.5.4l-6.1,5.4,7.2,8,6.1-5.4c3.2-2.9,3.8-5.7,1.4-8.4Z"/>
            <path class="cls-3" d="M187.8,115.8l-1.9,1.3,8.9,13.2-6.6,4.5-22.4-33.2,14-9.5c7.9-5.3,14.7-4.5,19,1.9,3.7,5.5,2.4,11.7-3.5,16.7l19.2,6.4-8,5.4-18.6-6.7ZM182,111.4l7.3-4.9c3.6-2.4,4.6-5,2.7-7.8-1.9-2.8-4.7-2.7-8.2-.3l-7.3,4.9,5.5,8.1Z"/>
            <path class="cls-3" d="M227.1,110.6l-7,3.8-19.2-35.2,7-3.8,19.2,35.2Z"/>
            <path class="cls-3" d="M230.8,103.1l1.3-7.6c3.6,1,8.7,1,13.4-1,4.1-1.7,6.5-4.7,5.3-7.5-1.1-2.6-4.2-2.4-9.6-1l-2.5.7c-6.9,1.8-12.9.9-15.7-5.8-3.1-7.4,1.3-14.4,9.7-18,5.1-2.2,9.9-2.9,15.7-2.1l-.9,7.5c-3.7-.6-7.7-.4-11.8,1.3-4.1,1.8-6.3,4.6-5.2,7.4,1.2,2.7,4.7,2.2,9.4,1l2.2-.6c7-1.8,13.4-1,16.1,5.4,3.5,8.1-2,15.1-9.9,18.4-5.5,2.4-12.2,3.3-17.6,1.8Z"/>
            <path class="cls-3" d="M295.6,77.3l2,7.1-28.8,8.1-10.8-38.6,28.6-8,2,7.1-20.9,5.8,2.4,8.6,19.9-5.6,2,7.1-19.9,5.6,2.5,8.9,21.1-5.9Z"/>
            <path class="cls-3" d="M346.2,50.5c.7,7.7-3.9,13.1-13.3,14l-8.4.8,1.4,14.6-7.9.7-3.8-39.9,16.2-1.5c9.5-.9,15,3.6,15.8,11.3ZM338,51.3c-.3-3.6-2.8-5.2-7.1-4.7l-8.2.8,1,10.7,8.2-.8c4.3-.4,6.4-2.4,6.1-6Z"/>
            <path class="cls-3" d="M365.3,62.1h-2.3c0,0-.6,15.8-.6,15.8l-8-.3,1.5-40,16.9.6c9.5.4,14.5,5.1,14.2,12.7-.3,6.6-5,10.9-12.7,11.4l11.7,16.5-9.7-.4-11-16.4ZM363.2,55.1l8.8.3c4.3.2,6.7-1.4,6.8-4.7.1-3.3-2.2-4.9-6.4-5.1l-8.8-.3-.4,9.8Z"/>
            <path class="cls-3" d="M422.6,77.5l-1.2,7.2-29.5-5.1,6.8-39.5,29.2,5-1.2,7.2-21.4-3.7-1.5,8.7,20.4,3.5-1.2,7.2-20.4-3.5-1.6,9.1,21.6,3.7Z"/>
            <path class="cls-3" d="M465.7,69.4c-2.3,7.4-8.6,10.6-17.7,7.8l-8-2.5-4.3,14-7.6-2.4,11.9-38.3,15.6,4.8c9.1,2.8,12.5,9.1,10.2,16.5ZM457.9,67c1.1-3.4-.6-5.8-4.7-7.1l-7.8-2.4-3.2,10.3,7.8,2.4c4.1,1.3,6.8.3,7.9-3.2Z"/>
            <path class="cls-3" d="M486.2,98.1l-15.5-7-7,7.1-7.6-3.4,30.7-30.1,8.9,4-2.3,42.9-7.8-3.5.7-9.9ZM486.7,90.2l1.1-16.5-11.7,11.7,10.5,4.8Z"/>
            <path class="cls-3" d="M513.7,105.7l-2-1.2-8.5,13.5-6.7-4.2,21.4-33.9,14.3,9c8.1,5.1,10,11.6,5.9,18.1-3.5,5.6-9.8,6.9-16.7,3.5l1.8,20.1-8.2-5.1-1.4-19.7ZM515.5,98.5l7.4,4.7c3.7,2.3,6.4,2.2,8.2-.7,1.8-2.8.6-5.4-3-7.6l-7.4-4.7-5.2,8.3Z"/>
            <path class="cls-3" d="M555.7,147.7l-4.7,5.6-23-19.1,25.6-30.8,22.8,19-4.7,5.6-16.7-13.9-5.7,6.8,15.9,13.2-4.7,5.6-15.9-13.2-5.9,7.1,16.8,14Z"/>
            <path class="cls-3" d="M595.9,172.1c-9,8.1-20.4,7.3-28.8-2l-11.1-12.2,29.7-26.9,11.1,12.2c8.4,9.3,8,20.8-.9,28.9ZM590.3,165.9c5.5-4.9,6.6-11.5.9-17.7l-5.7-6.3-18.6,16.9,5.7,6.3c5.7,6.3,12.3,5.7,17.7.9Z"/>
            <path class="cls-3" d="M618,168.1l4.1,6.2-11.2,31.7,22.4-14.7,4.4,6.7-33.5,22-4.1-6.3,11.3-31.7-22.4,14.7-4.4-6.7,33.5-22Z"/>
            <path class="cls-3" d="M627,250.9l-6.6,3.1-12.7-27.1,36.3-17,12.6,26.9-6.6,3.1-9.2-19.6-8,3.8,8.8,18.7-6.6,3.1-8.8-18.7-8.3,3.9,9.3,19.9Z"/>
            <path class="cls-3" d="M626.6,257.3l7.4,2c-1.3,3.4-1.8,8.5-.3,13.5,1.3,4.2,4,7,7,6,2.7-.8,2.8-3.9,1.9-9.5l-.4-2.5c-1.1-7,.4-12.9,7.3-15.1,7.6-2.4,14.2,2.7,17,11.4,1.7,5.3,1.9,10.2.5,15.9l-7.4-1.6c.9-3.6,1.2-7.7-.2-11.8-1.3-4.3-4-6.8-6.9-5.9-2.8.9-2.7,4.5-1.9,9.3l.4,2.2c1.1,7.1-.3,13.4-6.9,15.5-8.4,2.6-14.8-3.5-17.4-11.7-1.8-5.7-2.1-12.5,0-17.6Z"/>
            <path class="cls-3" d="M637.7,292.9l7.1,2.9c-1.8,3.2-2.9,8.2-2,13.3.8,4.4,3.1,7.4,6.2,6.9,2.7-.5,3.3-3.6,3.1-9.2v-2.6c-.3-7.1,1.9-12.8,9-14,7.9-1.4,13.8,4.5,15.4,13.4,1,5.5.6,10.3-1.5,15.8l-7.1-2.5c1.4-3.4,2.1-7.5,1.3-11.8-.8-4.4-3.1-7.2-6.1-6.7-2.9.5-3.2,4.1-3.1,9v2.3c.3,7.2-1.9,13.3-8.7,14.5-8.7,1.6-14.2-5.3-15.8-13.8-1.1-5.9-.5-12.7,2.1-17.5Z"/>
          </g>
          <g>
            <path class="cls-3" d="M66.9,477l-7,2.3-9.3-28.4,38.1-12.5,9.2,28.2-7,2.3-6.8-20.6-8.4,2.8,6.5,19.7-7,2.3-6.4-19.7-8.8,2.9,6.8,20.8Z"/>
            <path class="cls-3" d="M100,471.8l5.4,10.3-19.1,21.8,28.8-3.4,5.4,10.3-35.5,18.7-3.7-7.1,26.8-14.1-28,3.6-3.9-7.5,18.6-21-26.6,14-3.7-7.1,35.5-18.7Z"/>
            <path class="cls-3" d="M116.1,559.8l-5.9,4.4-17.8-24,32.2-23.9,17.7,23.8-5.9,4.4-12.9-17.4-7.1,5.3,12.3,16.6-5.9,4.4-12.3-16.6-7.4,5.5,13.1,17.6Z"/>
            <path class="cls-3" d="M136.3,569.2l-1.6-1.7-11.5,11.1-5.5-5.7,28.8-27.9,11.8,12.2c6.6,6.9,6.9,13.7,1.4,19-4.7,4.6-11.1,4.4-17-.6l-3,20-6.7-6.9,3.4-19.5ZM139.6,562.7l6.1,6.3c3,3.1,5.7,3.6,8.2,1.3,2.4-2.3,1.8-5.1-1.1-8.1l-6.1-6.3-7.1,6.8Z"/>
            <path class="cls-3" d="M158.3,585.8c7.4-9.6,19.7-11,29.4-3.4,5,3.9,7.8,8.9,8.2,14.2l-8,.9c-.2-3.4-1.8-6.7-5-9.3-5.8-4.5-13.3-3.5-18.1,2.7-5,6.5-3.8,13.9,1.7,18.2,5.1,4,10.1,3.8,14.4,0l-8-6.2,4.1-5.3,14.5,11.3c-.4.7-.8,1.3-1.3,1.9-7.4,9.6-19.2,11.3-28.1,4.3-8.7-6.8-11.7-19-3.8-29.2Z"/>
            <path class="cls-3" d="M216.3,640.3l-3.6,6.4-25.9-14.9,19.9-34.8,25.7,14.8-3.6,6.4-18.8-10.8-4.4,7.7,17.9,10.3-3.6,6.4-17.9-10.3-4.6,8,19,10.9Z"/>
            <path class="cls-3" d="M238,614.7l6.9,2.8,8.9,32.4,10-24.9,7.4,3-15,37.2-7-2.8-8.8-32.4-10,24.9-7.4-3,15-37.2Z"/>
            <path class="cls-3" d="M271.2,649.1c2.8-11.7,13.3-18.2,25.3-15.4,7.2,1.7,12.7,6.5,14.6,12.7l-7.6,2.5c-1.4-3.9-4.4-6.7-8.8-7.8-7.1-1.7-13.5,2.3-15.3,9.8-1.9,7.8,2.4,14,9.3,15.7,4.3,1,8.3,0,11.4-2.9l5.3,6.1c-4.7,4.2-11.3,6-18.4,4.3-12-2.8-18.4-13.4-15.6-25.1Z"/>
            <path class="cls-3" d="M333.6,664.8l-1.5,15.7-7.9-.8,1.6-15.8-12.9-25.6,9.3.9,8.4,17.9,11.7-15.9,9,.9-17.5,22.7Z"/>
            <path class="cls-3" d="M365.8,662.3c-1.1-11.9,6.7-21.5,19-22.7,12.3-1.2,21.8,6.8,22.9,18.7,1.1,11.9-6.7,21.5-19,22.7-12.3,1.2-21.7-6.8-22.8-18.7ZM399.4,659.1c-.7-7.8-6.5-12.6-13.9-11.9-7.3.7-12.1,6.5-11.4,14.3.7,7.8,6.5,12.6,13.9,11.9,7.3-.7,12.1-6.5,11.4-14.3Z"/>
            <path class="cls-3" d="M443.7,642.2c1.8,7.5-2,13.5-11.2,15.8l-8.2,2,3.5,14.2-7.7,1.9-9.4-39,15.8-3.8c9.3-2.2,15.4,1.4,17.2,8.9ZM435.8,644.1c-.8-3.5-3.5-4.7-7.7-3.7l-8,1.9,2.5,10.5,8-1.9c4.2-1,6-3.3,5.1-6.8Z"/>
            <path class="cls-3" d="M484.8,648.3l2.6,6.9-27.9,10.6-14.3-37.5,27.7-10.6,2.6,6.9-20.3,7.7,3.2,8.3,19.3-7.4,2.6,6.8-19.3,7.4,3.3,8.6,20.5-7.8Z"/>
            <path class="cls-3" d="M499.4,631.4l-2.1,1.1,7.5,14.1-7,3.8-19-35.3,14.9-8c8.4-4.5,15.1-3,18.7,3.8,3.1,5.8,1.2,11.9-5.2,16.2l18.4,8.3-8.5,4.6-17.8-8.5ZM494,626.4l7.8-4.2c3.8-2.1,5.1-4.5,3.5-7.5-1.6-2.9-4.4-3.1-8.1-1.1l-7.8,4.2,4.6,8.7Z"/>
            <path class="cls-3" d="M549.1,607.7l-13.8,10,2.7,9.6-6.7,4.9-11-41.6,7.9-5.7,36.2,23.3-6.9,5-8.3-5.5ZM542.6,603.3l-13.8-9.1,4.4,15.9,9.4-6.8Z"/>
            <path class="cls-3" d="M566.7,561.1l-9.1,8.4,22.2,23.9-5.8,5.4-22.2-23.9-9.1,8.4-5.1-5.5,24-22.3,5.1,5.5Z"/>
            <path class="cls-3" d="M599.2,573.4l-5.3,5.9-29.7-26.9,5.3-5.9,29.7,26.9Z"/>
            <path class="cls-3" d="M589.9,554.4c-9.7-7-11.8-19.2-4.5-29.2,7.2-10,19.5-11.9,29.2-4.8,9.7,7,11.7,19.3,4.5,29.2-7.2,10-19.5,11.8-29.2,4.8ZM609.6,527.2c-6.3-4.6-13.7-3.4-18.1,2.6-4.3,5.9-3.1,13.4,3.2,18,6.3,4.6,13.8,3.4,18.1-2.6,4.3-6,3.1-13.4-3.2-18Z"/>
            <path class="cls-3" d="M600.6,504.4l3.4-6.6,33.1-5.9-23.8-12.2,3.6-7.1,35.7,18.2-3.4,6.7-33.1,5.9,23.8,12.2-3.6,7.1-35.7-18.2Z"/>
            <path class="cls-3" d="M652.4,479.4l-4.7-6c3.1-2,6.6-5.8,8.2-10.6,1.4-4.2.9-8-2-9-2.6-.9-4.6,1.5-7.2,6.5l-1.2,2.3c-3.3,6.3-8,10.2-14.8,7.8-7.6-2.6-9.8-10.7-6.9-19.2,1.8-5.3,4.5-9.3,9-13.1l4.9,5.7c-2.9,2.3-5.5,5.5-6.9,9.6-1.5,4.2-.8,7.8,2,8.8,2.8,1,4.8-2,7.1-6.3l1-2c3.4-6.4,8.2-10.6,14.8-8.4,8.4,2.9,9.8,11.6,7,19.7-2,5.7-5.8,11.3-10.5,14.2Z"/>
          </g>
          <circle class="cls-3" cx="663.3" cy="385.5" r="9.1"/>
        </g>
        <circle class="cls-3" cx="57.3" cy="384.5" r="9"/>
      </g>
    </g>
  </g>
</svg>